<mxfile host="app.diagrams.net" modified="2023-07-06T00:17:44.942Z" agent="Mozilla/5.0 (Windows NT 10.0; Win64; x64) AppleWebKit/537.36 (KHTML, like Gecko) Chrome/114.0.0.0 Safari/537.36" version="21.5.1" etag="8oa3MULpq5f3byLCDoB-" type="github">
  <diagram name="Page-1" id="aQPeuNjjBvYO6Jb4PyGd">
    <mxGraphModel>
      <root>
        <mxCell id="0" />
        <mxCell id="1" parent="0" />
      </root>
    </mxGraphModel>
  </diagram>
</mxfile>
